# Blender 4.1.1
# www.blender.org
mtllib box1_3.mtl
o Cube
v 0.030000 0.069000 -0.035000
v 0.030000 -0.069000 -0.035000
v 0.030000 0.069000 0.035000
v 0.030000 -0.069000 0.035000
v -0.030000 0.069000 -0.035000
v -0.030000 -0.069000 -0.035000
v -0.030000 0.069000 0.035000
v -0.030000 -0.069000 0.035000
vn -0.0000 1.0000 -0.0000
vn -0.0000 -0.0000 1.0000
vn -1.0000 -0.0000 -0.0000
vn -0.0000 -1.0000 -0.0000
vn 1.0000 -0.0000 -0.0000
vn -0.0000 -0.0000 -1.0000
vt 0.996880 0.992995
vt 0.996075 0.564785
vt 0.790179 0.566920
vt 0.790984 0.995130
vt 0.392629 -0.002041
vt 0.392629 0.987312
vt 0.216100 0.987312
vt 0.216100 -0.002041
vt 0.003146 -0.003515
vt 0.003146 0.990630
vt 0.210001 0.990630
vt 0.210001 -0.003515
vt 0.994792 0.010725
vt 0.994792 0.434029
vt 0.788317 0.434029
vt 0.788317 0.010725
vt 0.602881 0.005113
vt 0.602881 0.992154
vt 0.395997 0.992154
vt 0.395997 0.005113
vt 0.786979 0.011610
vt 0.786979 0.995602
vt 0.608314 0.995602
vt 0.608314 0.011610
s 0
usemtl box1
f 1/1/1 5/2/1 7/3/1 3/4/1
f 4/5/2 3/6/2 7/7/2 8/8/2
f 8/9/3 7/10/3 5/11/3 6/12/3
f 6/13/4 2/14/4 4/15/4 8/16/4
f 2/17/5 1/18/5 3/19/5 4/20/5
f 6/21/6 5/22/6 1/23/6 2/24/6
o Cube.001
v 0.030000 0.069000 -0.175000
v 0.030000 -0.069000 -0.175000
v 0.030000 0.069000 -0.105000
v 0.030000 -0.069000 -0.105000
v -0.030000 0.069000 -0.175000
v -0.030000 -0.069000 -0.175000
v -0.030000 0.069000 -0.105000
v -0.030000 -0.069000 -0.105000
vn -0.0000 1.0000 -0.0000
vn -0.0000 -0.0000 1.0000
vn -1.0000 -0.0000 -0.0000
vn -0.0000 -1.0000 -0.0000
vn 1.0000 -0.0000 -0.0000
vn -0.0000 -0.0000 -1.0000
vt 0.996880 0.992995
vt 0.996075 0.564785
vt 0.790179 0.566920
vt 0.790984 0.995130
vt 0.392629 -0.002041
vt 0.392629 0.987312
vt 0.216100 0.987312
vt 0.216100 -0.002041
vt 0.003146 -0.003515
vt 0.003146 0.990630
vt 0.210001 0.990630
vt 0.210001 -0.003515
vt 0.994792 0.010725
vt 0.994792 0.434029
vt 0.788317 0.434029
vt 0.788317 0.010725
vt 0.602881 0.005113
vt 0.602881 0.992154
vt 0.395997 0.992154
vt 0.395997 0.005113
vt 0.786979 0.011610
vt 0.786979 0.995602
vt 0.608314 0.995602
vt 0.608314 0.011610
s 0
usemtl box1.001
f 9/25/7 13/26/7 15/27/7 11/28/7
f 12/29/8 11/30/8 15/31/8 16/32/8
f 16/33/9 15/34/9 13/35/9 14/36/9
f 14/37/10 10/38/10 12/39/10 16/40/10
f 10/41/11 9/42/11 11/43/11 12/44/11
f 14/45/12 13/46/12 9/47/12 10/48/12
o Cube.002
v 0.030000 0.069000 -0.105000
v 0.030000 -0.069000 -0.105000
v 0.030000 0.069000 -0.035000
v 0.030000 -0.069000 -0.035000
v -0.030000 0.069000 -0.105000
v -0.030000 -0.069000 -0.105000
v -0.030000 0.069000 -0.035000
v -0.030000 -0.069000 -0.035000
vn -0.0000 1.0000 -0.0000
vn -0.0000 -0.0000 1.0000
vn -1.0000 -0.0000 -0.0000
vn -0.0000 -1.0000 -0.0000
vn 1.0000 -0.0000 -0.0000
vn -0.0000 -0.0000 -1.0000
vt 0.996880 0.992995
vt 0.996075 0.564785
vt 0.790179 0.566920
vt 0.790984 0.995130
vt 0.392629 -0.002041
vt 0.392629 0.987312
vt 0.216100 0.987312
vt 0.216100 -0.002041
vt 0.003146 -0.003515
vt 0.003146 0.990630
vt 0.210001 0.990630
vt 0.210001 -0.003515
vt 0.994792 0.010725
vt 0.994792 0.434029
vt 0.788317 0.434029
vt 0.788317 0.010725
vt 0.602881 0.005113
vt 0.602881 0.992154
vt 0.395997 0.992154
vt 0.395997 0.005113
vt 0.786979 0.011610
vt 0.786979 0.995602
vt 0.608314 0.995602
vt 0.608314 0.011610
s 0
usemtl box1.002
f 17/49/13 21/50/13 23/51/13 19/52/13
f 20/53/14 19/54/14 23/55/14 24/56/14
f 24/57/15 23/58/15 21/59/15 22/60/15
f 22/61/16 18/62/16 20/63/16 24/64/16
f 18/65/17 17/66/17 19/67/17 20/68/17
f 22/69/18 21/70/18 17/71/18 18/72/18
