# Blender 4.1.1
# www.blender.org
mtllib box4.mtl
o Cube
v 0.027500 0.040000 -0.052500
v 0.027500 -0.040000 -0.052500
v 0.027500 0.040000 0.052500
v 0.027500 -0.040000 0.052500
v -0.027500 0.040000 -0.052500
v -0.027500 -0.040000 -0.052500
v -0.027500 0.040000 0.052500
v -0.027500 -0.040000 0.052500
vn -0.0000 1.0000 -0.0000
vn -0.0000 -0.0000 1.0000
vn -1.0000 -0.0000 -0.0000
vn -0.0000 -1.0000 -0.0000
vn 1.0000 -0.0000 -0.0000
vn -0.0000 -0.0000 -1.0000
vt 0.035039 0.717466
vt 0.038694 0.994471
vt 0.973432 0.993089
vt 0.969779 0.716084
vt 0.491977 0.310981
vt 0.491977 0.694763
vt 0.124853 0.694763
vt 0.124853 0.310981
vt 0.041504 0.310245
vt 0.041504 0.699517
vt 0.975508 0.699517
vt 0.975508 0.310245
vt 0.042066 0.289930
vt 0.042066 0.015635
vt 0.976098 0.015635
vt 0.976098 0.289930
vt 0.977290 0.308778
vt 0.977290 0.699706
vt 0.041809 0.699706
vt 0.041809 0.308778
vt 0.920775 0.326996
vt 0.920775 0.700215
vt 0.454105 0.700215
vt 0.454105 0.326996
s 0
usemtl box4
f 1/1/1 5/2/1 7/3/1 3/4/1
f 4/5/2 3/6/2 7/7/2 8/8/2
f 8/9/3 7/10/3 5/11/3 6/12/3
f 6/13/4 2/14/4 4/15/4 8/16/4
f 2/17/5 1/18/5 3/19/5 4/20/5
f 6/21/6 5/22/6 1/23/6 2/24/6
