# Blender 4.4.0
# www.blender.org
mtllib box3_8.mtl
o Cube
v 0.017500 0.060000 -0.075000
v 0.017500 -0.060000 -0.075000
v 0.017500 0.060000 -0.025000
v 0.017500 -0.060000 -0.025000
v -0.017500 0.060000 -0.075000
v -0.017500 -0.060000 -0.075000
v -0.017500 0.060000 -0.025000
v -0.017500 -0.060000 -0.025000
vn -0.0000 1.0000 -0.0000
vn -0.0000 -0.0000 1.0000
vn -1.0000 -0.0000 -0.0000
vn -0.0000 -1.0000 -0.0000
vn 1.0000 -0.0000 -0.0000
vn -0.0000 -0.0000 -1.0000
vt 0.782541 0.696431
vt 0.783346 0.973436
vt 0.989298 0.972055
vt 0.988493 0.695050
vt 0.381045 0.032324
vt 0.381045 0.998662
vt 0.230729 0.998662
vt 0.230729 0.032324
vt 0.009753 0.015822
vt 0.009753 0.982721
vt 0.218615 0.982721
vt 0.218615 0.015822
vt 0.775063 0.306638
vt 0.775063 0.024169
vt 0.991303 0.024169
vt 0.991303 0.306638
vt 0.605936 0.011809
vt 0.605936 0.985457
vt 0.392942 0.985457
vt 0.392942 0.011809
vt 0.763238 0.030215
vt 0.763238 0.996997
vt 0.611642 0.996997
vt 0.611642 0.030215
s 0
usemtl box3
f 1/1/1 5/2/1 7/3/1 3/4/1
f 4/5/2 3/6/2 7/7/2 8/8/2
f 8/9/3 7/10/3 5/11/3 6/12/3
f 6/13/4 2/14/4 4/15/4 8/16/4
f 2/17/5 1/18/5 3/19/5 4/20/5
f 6/21/6 5/22/6 1/23/6 2/24/6
o Cube.001
v 0.017500 0.060000 -0.025000
v 0.017500 -0.060000 -0.025000
v 0.017500 0.060000 0.025000
v 0.017500 -0.060000 0.025000
v -0.017500 0.060000 -0.025000
v -0.017500 -0.060000 -0.025000
v -0.017500 0.060000 0.025000
v -0.017500 -0.060000 0.025000
vn -0.0000 1.0000 -0.0000
vn -0.0000 -0.0000 1.0000
vn -1.0000 -0.0000 -0.0000
vn -0.0000 -1.0000 -0.0000
vn 1.0000 -0.0000 -0.0000
vn -0.0000 -0.0000 -1.0000
vt 0.782541 0.696431
vt 0.783346 0.973436
vt 0.989298 0.972055
vt 0.988493 0.695050
vt 0.381045 0.032324
vt 0.381045 0.998662
vt 0.230729 0.998662
vt 0.230729 0.032324
vt 0.009753 0.015822
vt 0.009753 0.982721
vt 0.218615 0.982721
vt 0.218615 0.015822
vt 0.775063 0.306638
vt 0.775063 0.024169
vt 0.991303 0.024169
vt 0.991303 0.306638
vt 0.605936 0.011809
vt 0.605936 0.985457
vt 0.392942 0.985457
vt 0.392942 0.011809
vt 0.763238 0.030215
vt 0.763238 0.996997
vt 0.611642 0.996997
vt 0.611642 0.030215
s 0
usemtl box3.001
f 9/25/7 13/26/7 15/27/7 11/28/7
f 12/29/8 11/30/8 15/31/8 16/32/8
f 16/33/9 15/34/9 13/35/9 14/36/9
f 14/37/10 10/38/10 12/39/10 16/40/10
f 10/41/11 9/42/11 11/43/11 12/44/11
f 14/45/12 13/46/12 9/47/12 10/48/12
o Cube.002
v 0.017500 0.060000 -0.125000
v 0.017500 -0.060000 -0.125000
v 0.017500 0.060000 -0.075000
v 0.017500 -0.060000 -0.075000
v -0.017500 0.060000 -0.125000
v -0.017500 -0.060000 -0.125000
v -0.017500 0.060000 -0.075000
v -0.017500 -0.060000 -0.075000
vn -0.0000 1.0000 -0.0000
vn -0.0000 -0.0000 1.0000
vn -1.0000 -0.0000 -0.0000
vn -0.0000 -1.0000 -0.0000
vn 1.0000 -0.0000 -0.0000
vn -0.0000 -0.0000 -1.0000
vt 0.782541 0.696431
vt 0.783346 0.973436
vt 0.989298 0.972055
vt 0.988493 0.695050
vt 0.381045 0.032324
vt 0.381045 0.998662
vt 0.230729 0.998662
vt 0.230729 0.032324
vt 0.009753 0.015822
vt 0.009753 0.982721
vt 0.218615 0.982721
vt 0.218615 0.015822
vt 0.775063 0.306638
vt 0.775063 0.024169
vt 0.991303 0.024169
vt 0.991303 0.306638
vt 0.605936 0.011809
vt 0.605936 0.985457
vt 0.392942 0.985457
vt 0.392942 0.011809
vt 0.763238 0.030215
vt 0.763238 0.996997
vt 0.611642 0.996997
vt 0.611642 0.030215
s 0
usemtl box3.002
f 17/49/13 21/50/13 23/51/13 19/52/13
f 20/53/14 19/54/14 23/55/14 24/56/14
f 24/57/15 23/58/15 21/59/15 22/60/15
f 22/61/16 18/62/16 20/63/16 24/64/16
f 18/65/17 17/66/17 19/67/17 20/68/17
f 22/69/18 21/70/18 17/71/18 18/72/18
o Cube.003
v 0.017500 0.060000 -0.175000
v 0.017500 -0.060000 -0.175000
v 0.017500 0.060000 -0.125000
v 0.017500 -0.060000 -0.125000
v -0.017500 0.060000 -0.175000
v -0.017500 -0.060000 -0.175000
v -0.017500 0.060000 -0.125000
v -0.017500 -0.060000 -0.125000
vn -0.0000 1.0000 -0.0000
vn -0.0000 -0.0000 1.0000
vn -1.0000 -0.0000 -0.0000
vn -0.0000 -1.0000 -0.0000
vn 1.0000 -0.0000 -0.0000
vn -0.0000 -0.0000 -1.0000
vt 0.782541 0.696431
vt 0.783346 0.973436
vt 0.989298 0.972055
vt 0.988493 0.695050
vt 0.381045 0.032324
vt 0.381045 0.998662
vt 0.230729 0.998662
vt 0.230729 0.032324
vt 0.009753 0.015822
vt 0.009753 0.982721
vt 0.218615 0.982721
vt 0.218615 0.015822
vt 0.775063 0.306638
vt 0.775063 0.024169
vt 0.991303 0.024169
vt 0.991303 0.306638
vt 0.605936 0.011809
vt 0.605936 0.985457
vt 0.392942 0.985457
vt 0.392942 0.011809
vt 0.763238 0.030215
vt 0.763238 0.996997
vt 0.611642 0.996997
vt 0.611642 0.030215
s 0
usemtl box3.003
f 25/73/19 29/74/19 31/75/19 27/76/19
f 28/77/20 27/78/20 31/79/20 32/80/20
f 32/81/21 31/82/21 29/83/21 30/84/21
f 30/85/22 26/86/22 28/87/22 32/88/22
f 26/89/23 25/90/23 27/91/23 28/92/23
f 30/93/24 29/94/24 25/95/24 26/96/24
o Cube.004
v -0.017500 0.060000 -0.175000
v -0.017500 -0.060000 -0.175000
v -0.017500 0.060000 -0.125000
v -0.017500 -0.060000 -0.125000
v -0.052500 0.060000 -0.175000
v -0.052500 -0.060000 -0.175000
v -0.052500 0.060000 -0.125000
v -0.052500 -0.060000 -0.125000
vn -0.0000 1.0000 -0.0000
vn -0.0000 -0.0000 1.0000
vn -1.0000 -0.0000 -0.0000
vn -0.0000 -1.0000 -0.0000
vn 1.0000 -0.0000 -0.0000
vn -0.0000 -0.0000 -1.0000
vt 0.782541 0.696431
vt 0.783346 0.973436
vt 0.989298 0.972055
vt 0.988493 0.695050
vt 0.381045 0.032324
vt 0.381045 0.998662
vt 0.230729 0.998662
vt 0.230729 0.032324
vt 0.009753 0.015822
vt 0.009753 0.982721
vt 0.218615 0.982721
vt 0.218615 0.015822
vt 0.775063 0.306638
vt 0.775063 0.024169
vt 0.991303 0.024169
vt 0.991303 0.306638
vt 0.605936 0.011809
vt 0.605936 0.985457
vt 0.392942 0.985457
vt 0.392942 0.011809
vt 0.763238 0.030215
vt 0.763238 0.996997
vt 0.611642 0.996997
vt 0.611642 0.030215
s 0
usemtl box3.004
f 33/97/25 37/98/25 39/99/25 35/100/25
f 36/101/26 35/102/26 39/103/26 40/104/26
f 40/105/27 39/106/27 37/107/27 38/108/27
f 38/109/28 34/110/28 36/111/28 40/112/28
f 34/113/29 33/114/29 35/115/29 36/116/29
f 38/117/30 37/118/30 33/119/30 34/120/30
o Cube.005
v -0.017500 0.060000 -0.125000
v -0.017500 -0.060000 -0.125000
v -0.017500 0.060000 -0.075000
v -0.017500 -0.060000 -0.075000
v -0.052500 0.060000 -0.125000
v -0.052500 -0.060000 -0.125000
v -0.052500 0.060000 -0.075000
v -0.052500 -0.060000 -0.075000
vn -0.0000 1.0000 -0.0000
vn -0.0000 -0.0000 1.0000
vn -1.0000 -0.0000 -0.0000
vn -0.0000 -1.0000 -0.0000
vn 1.0000 -0.0000 -0.0000
vn -0.0000 -0.0000 -1.0000
vt 0.782541 0.696431
vt 0.783346 0.973436
vt 0.989298 0.972055
vt 0.988493 0.695050
vt 0.381045 0.032324
vt 0.381045 0.998662
vt 0.230729 0.998662
vt 0.230729 0.032324
vt 0.009753 0.015822
vt 0.009753 0.982721
vt 0.218615 0.982721
vt 0.218615 0.015822
vt 0.775063 0.306638
vt 0.775063 0.024169
vt 0.991303 0.024169
vt 0.991303 0.306638
vt 0.605936 0.011809
vt 0.605936 0.985457
vt 0.392942 0.985457
vt 0.392942 0.011809
vt 0.763238 0.030215
vt 0.763238 0.996997
vt 0.611642 0.996997
vt 0.611642 0.030215
s 0
usemtl box3.005
f 41/121/31 45/122/31 47/123/31 43/124/31
f 44/125/32 43/126/32 47/127/32 48/128/32
f 48/129/33 47/130/33 45/131/33 46/132/33
f 46/133/34 42/134/34 44/135/34 48/136/34
f 42/137/35 41/138/35 43/139/35 44/140/35
f 46/141/36 45/142/36 41/143/36 42/144/36
o Cube.006
v -0.017500 0.060000 -0.025000
v -0.017500 -0.060000 -0.025000
v -0.017500 0.060000 0.025000
v -0.017500 -0.060000 0.025000
v -0.052500 0.060000 -0.025000
v -0.052500 -0.060000 -0.025000
v -0.052500 0.060000 0.025000
v -0.052500 -0.060000 0.025000
vn -0.0000 1.0000 -0.0000
vn -0.0000 -0.0000 1.0000
vn -1.0000 -0.0000 -0.0000
vn -0.0000 -1.0000 -0.0000
vn 1.0000 -0.0000 -0.0000
vn -0.0000 -0.0000 -1.0000
vt 0.782541 0.696431
vt 0.783346 0.973436
vt 0.989298 0.972055
vt 0.988493 0.695050
vt 0.381045 0.032324
vt 0.381045 0.998662
vt 0.230729 0.998662
vt 0.230729 0.032324
vt 0.009753 0.015822
vt 0.009753 0.982721
vt 0.218615 0.982721
vt 0.218615 0.015822
vt 0.775063 0.306638
vt 0.775063 0.024169
vt 0.991303 0.024169
vt 0.991303 0.306638
vt 0.605936 0.011809
vt 0.605936 0.985457
vt 0.392942 0.985457
vt 0.392942 0.011809
vt 0.763238 0.030215
vt 0.763238 0.996997
vt 0.611642 0.996997
vt 0.611642 0.030215
s 0
usemtl box3.006
f 49/145/37 53/146/37 55/147/37 51/148/37
f 52/149/38 51/150/38 55/151/38 56/152/38
f 56/153/39 55/154/39 53/155/39 54/156/39
f 54/157/40 50/158/40 52/159/40 56/160/40
f 50/161/41 49/162/41 51/163/41 52/164/41
f 54/165/42 53/166/42 49/167/42 50/168/42
o Cube.007
v -0.017500 0.060000 -0.075000
v -0.017500 -0.060000 -0.075000
v -0.017500 0.060000 -0.025000
v -0.017500 -0.060000 -0.025000
v -0.052500 0.060000 -0.075000
v -0.052500 -0.060000 -0.075000
v -0.052500 0.060000 -0.025000
v -0.052500 -0.060000 -0.025000
vn -0.0000 1.0000 -0.0000
vn -0.0000 -0.0000 1.0000
vn -1.0000 -0.0000 -0.0000
vn -0.0000 -1.0000 -0.0000
vn 1.0000 -0.0000 -0.0000
vn -0.0000 -0.0000 -1.0000
vt 0.782541 0.696431
vt 0.783346 0.973436
vt 0.989298 0.972055
vt 0.988493 0.695050
vt 0.381045 0.032324
vt 0.381045 0.998662
vt 0.230729 0.998662
vt 0.230729 0.032324
vt 0.009753 0.015822
vt 0.009753 0.982721
vt 0.218615 0.982721
vt 0.218615 0.015822
vt 0.775063 0.306638
vt 0.775063 0.024169
vt 0.991303 0.024169
vt 0.991303 0.306638
vt 0.605936 0.011809
vt 0.605936 0.985457
vt 0.392942 0.985457
vt 0.392942 0.011809
vt 0.763238 0.030215
vt 0.763238 0.996997
vt 0.611642 0.996997
vt 0.611642 0.030215
s 0
usemtl box3.007
f 57/169/43 61/170/43 63/171/43 59/172/43
f 60/173/44 59/174/44 63/175/44 64/176/44
f 64/177/45 63/178/45 61/179/45 62/180/45
f 62/181/46 58/182/46 60/183/46 64/184/46
f 58/185/47 57/186/47 59/187/47 60/188/47
f 62/189/48 61/190/48 57/191/48 58/192/48
