# Blender 4.1.1
# www.blender.org
mtllib box2.mtl
o Cube
v 0.030000 0.030000 -0.040000
v 0.030000 -0.030000 -0.040000
v 0.030000 0.030000 0.040000
v 0.030000 -0.030000 0.040000
v -0.030000 0.030000 -0.040000
v -0.030000 -0.030000 -0.040000
v -0.030000 0.030000 0.040000
v -0.030000 -0.030000 0.040000
vn -0.0000 1.0000 -0.0000
vn -0.0000 -0.0000 1.0000
vn -1.0000 -0.0000 -0.0000
vn -0.0000 -1.0000 -0.0000
vn 1.0000 -0.0000 -0.0000
vn -0.0000 -0.0000 -1.0000
vt 0.990493 0.653578
vt 0.986751 0.337016
vt 0.029492 0.338595
vt 0.033233 0.655156
vt 0.790315 0.670480
vt 0.790315 0.973204
vt 0.159374 0.973204
vt 0.159374 0.670480
vt 0.033012 0.012569
vt 0.033012 0.322720
vt 0.976746 0.322720
vt 0.976746 0.012569
vt 0.978691 0.984962
vt 0.033732 0.984962
vt 0.033732 0.662153
vt 0.978691 0.662153
vt 0.983033 0.984095
vt 0.983033 0.666412
vt 0.031279 0.666412
vt 0.031279 0.984095
vt 0.213294 0.976043
vt 0.761964 0.976043
vt 0.761964 0.666797
vt 0.213294 0.666797
s 0
usemtl box1
f 1/1/1 5/2/1 7/3/1 3/4/1
f 4/5/2 3/6/2 7/7/2 8/8/2
f 8/9/3 7/10/3 5/11/3 6/12/3
f 6/13/4 2/14/4 4/15/4 8/16/4
f 2/17/5 1/18/5 3/19/5 4/20/5
f 6/21/6 5/22/6 1/23/6 2/24/6
